<svg xmlns="http://www.w3.org/2000/svg" xmlns:xlink="http://www.w3.org/1999/xlink" version="1.1" id="Layer_1" x="0px" y="0px" viewBox="0 0 46 46" style="enable-background:new 0 0 46 46;" xml:space="preserve">
<style type="text/css">
	.st0{fill:#FFFFFF;}
</style>
<path class="st0" d="M9.8,22.9c0-7.3,6-13.3,13.3-13.3c3.6,0,6.6,1.3,9,3.6l-3.6,3.4c-0.9-0.9-2.8-2.1-5.3-2.1  c-4.5,0-8.3,3.8-8.3,8.4s3.8,8.4,8.3,8.4c5.3,0,7.3-3.8,7.7-5.8h-7.7V21H36c0.2,0.8,0.2,1.3,0.2,2.3c0,7.7-5.1,13.1-12.9,13.1  C15.8,36.2,9.8,30.2,9.8,22.9"/>
</svg>