<svg xmlns="http://www.w3.org/2000/svg" xmlns:xlink="http://www.w3.org/1999/xlink" version="1.1" baseProfile="tiny" id="Layer_1" x="0px" y="0px" viewBox="0 0 1000 1000" xml:space="preserve">
<metadata><?xpacket begin="﻿" id="W5M0MpCehiHzreSzNTczkc9d"?>
<x:xmpmeta xmlns:x="adobe:ns:meta/" x:xmptk="Adobe XMP Core 5.6-c067 79.157747, 2015/03/30-23:40:42        ">
   <rdf:RDF xmlns:rdf="http://www.w3.org/1999/02/22-rdf-syntax-ns#">
      <rdf:Description rdf:about=""/>
   </rdf:RDF>
</x:xmpmeta>                      
<?xpacket end="w"?></metadata>
<g>
	<path fill="#FFFFFF" d="M690.1,614.5l-0.1-0.2c10.6-1.5,20.9-4.5,29.5-10.6c14.6-10.3,22.8-31.5,13.5-46.8   c-6.3-10.3-18.6-15.4-30.6-17.1c-12-1.7-24.2-0.7-36.2-2.2c-41.8-5.1-75-39.4-92.7-77.6c-17.7-38.2-23.2-80.7-32.6-121.8   c-8.8-38.6-21.5-77.2-44.3-109.3c-7.7-12.2-16.8-23.8-27.4-34.4c-76.7-76.7-201-76.7-277.6,0c-76.7,76.7-76.7,201,0,277.6   c1.5,1.5,3,2.9,4.6,4.3c5,5.6,10.4,10.9,16.1,15.7c34.2,28.7,77.8,43.6,121.3,53.5c41.1,9.3,83.6,14.9,121.8,32.6   c38.2,17.7,72.6,50.9,77.6,92.7c1.5,12,0.5,24.2,2.2,36.2c1.7,12,6.8,24.3,17.1,30.6c15.3,9.3,36.5,1.1,46.8-13.5   c6.1-8.7,9.2-18.9,10.6-29.5l0.1,0.1c-2.3-18.1,0.4-41.9,22.1-63.5C646.4,617,668,613.3,690.1,614.5z"/>
	<path fill="#FFFFFF" d="M849.7,721.3c-10.7-10.7-24.8-16.1-38.9-16.1c-10.3,0-20.6,2.9-29.6,8.6l-43.6-53.8   c-12.4-15.3-33-21.6-51.8-15.6c-8.3,2.7-15.9,6.9-22.1,13c-7.2,7.1-12.2,14.4-15.8,21.7c-9.6,19.8-4,43.7,13,57.7l54,44.3   c-11.7,21-8.7,47.9,9.1,65.8c10.7,10.8,24.8,16.1,38.9,16.1s28.2-5.4,38.9-16.1c9-9,14.2-20.4,15.6-32.1   c11.7-1.5,23.1-6.6,32.1-15.6C871.2,777.7,871.2,742.8,849.7,721.3z"/>
</g>
</svg>