<svg xmlns="http://www.w3.org/2000/svg" xmlns:xlink="http://www.w3.org/1999/xlink" version="1.1" id="Layer_1" x="0px" y="0px" viewBox="450 -450 1000 1000" style="enable-background:new 450 -450 1000 1000;" xml:space="preserve">
<metadata><?xpacket begin="﻿" id="W5M0MpCehiHzreSzNTczkc9d"?>
<x:xmpmeta xmlns:x="adobe:ns:meta/" x:xmptk="Adobe XMP Core 5.6-c067 79.157747, 2015/03/30-23:40:42        ">
   <rdf:RDF xmlns:rdf="http://www.w3.org/1999/02/22-rdf-syntax-ns#">
      <rdf:Description rdf:about=""/>
   </rdf:RDF>
</x:xmpmeta>                     
<?xpacket end="w"?></metadata>
<style type="text/css">
	.st0{fill:#FFFFFF;}
</style>
<g>
	<path class="st0" d="M1437-36.9c0-0.8-0.2-1.6-0.2-2.4c-0.1-2.4-0.3-4.8-0.7-7.2c-0.4-2.5-1-5-1.7-7.4c-0.1-0.3-0.2-0.7-0.3-1   c-17-55.5-110.4-88.1-190.2-106.1c-0.6-0.1-1.2,0-1.8,0c-84.8-18.7-188.2-28.3-291-28.3c-109.8,0-220.2,10.9-308,32.2   c-0.6,0.1-1.2-0.1-1.8,0.1C568.8-139.1,484.1-107.2,468-54.8c-0.1,0.4-0.2,0.7-0.3,1.1c-0.7,2.5-1.4,5-1.8,7.5   c-0.4,2.1-0.5,4.3-0.6,6.4c0,1-0.3,1.9-0.3,2.9c0,0.2,0,0.3,0,0.5c0,0.1,0,0.1,0,0.2c0,0.1,0,0.2,0,0.3   c0.6,249,218.4,451.4,486,451.4c267.6,0,485.4-202.4,486-451.3c0-0.1,0-0.2,0-0.3c0-0.1,0-0.1,0-0.2C1437-36.5,1437-36.7,1437-36.9   z M951,75.8c-275.3,0-444.6-65.3-445.4-112.3c0.8-47,170.1-112.3,445.4-112.3c275.3,0,444.6,65.3,445.4,112.3   C1395.6,10.5,1226.3,75.8,951,75.8z"/>
	<path class="st0" d="M1255-93c-166.5-47.4-290.4,39.2-434.2,56.3c-113,13.4-194.3-18.9-190.9-42.6c0.8-5.6-6.4-9.4-12.4-7.6   C528-59.1,479-18.9,671,25c255.4,58.4,543.7,7.5,615-20C1351.7-20.3,1396-52.9,1255-93z"/>
</g>
</svg>