<svg xmlns="http://www.w3.org/2000/svg" xmlns:xlink="http://www.w3.org/1999/xlink" version="1.1" baseProfile="tiny" id="Layer_1" x="0px" y="0px" viewBox="0 0 1000 1000" xml:space="preserve">
<metadata><?xpacket begin="﻿" id="W5M0MpCehiHzreSzNTczkc9d"?>
<x:xmpmeta xmlns:x="adobe:ns:meta/" x:xmptk="Adobe XMP Core 5.6-c067 79.157747, 2015/03/30-23:40:42        ">
   <rdf:RDF xmlns:rdf="http://www.w3.org/1999/02/22-rdf-syntax-ns#">
      <rdf:Description rdf:about=""/>
   </rdf:RDF>
</x:xmpmeta>                     
<?xpacket end="w"?></metadata>
<g>
	<path fill="#FFFFFF" d="M412.3,272.4c24.7,6.5,54.6,10.4,86.8,10.4c32.2,0,62.1-3.8,86.8-10.3c24.6-6.6,44.1-15.8,55.6-27.2   l0.1-0.1c6.6-6.6,10.6-14.3,10.6-22.5c0-8.3-4-16-10.7-22.6c-9.3-9.3-23.8-17.1-42.1-23.2c2.6-6.1,1.2-13.2-3.5-17.8   c-0.9-0.9-2-1.7-3.2-2.5l-38.4-22.8c-6.5-3.8-14.7-2.7-19.8,2.5c-0.9,0.9-1.8,2-2.5,3.2l0,0.1L519.5,163   c-6.7-0.3-13.4-0.6-20.4-0.6c-32.2,0-62.1,3.9-86.8,10.4c-24.6,6.6-44.1,15.8-55.5,27.2c-6.6,6.6-10.7,14.3-10.7,22.6   c0,8.2,4,15.9,10.7,22.6C368.2,256.6,387.7,265.8,412.3,272.4z M629.3,206.9c6.3,6.3,8.5,12.4,7.6,17.1c-1.2,6.4-3.4,10.5-6.6,13.8   l0,0c0,0-25.5-19.4-54.9-28.1l16.7-22.4C610.4,193,622.4,200,629.3,206.9z M544.3,153.4c0.1,0,0.3,0.1,0.5,0.1   c0.9,0.3,2.1,0.8,3.2,1.4l29,17.2c1.1,0.7,2.2,1.5,2.8,2.1c0.1,0.1,0.1,0.1,0.1,0.2l-14.8,14.8c-0.3,0-0.6-0.1-1-0.2   c-0.9-0.2-2-0.7-3.2-1.5L539.3,175c-1.1-0.6-2.1-1.4-2.8-2.1c-0.2-0.2-0.4-0.5-0.6-0.7L544.3,153.4z M510.2,258.4L510.2,258.4   c-6.9,6.9-21.6,11.5-38.8,12.1c-18,0.5-33.5-3.5-40.4-10.3c-2.1-2.1-3.4-4.6-3.5-7.3c-0.1-3.1,1.4-5.9,3.9-8.4   c6.9-6.8,21.6-11.4,38.8-12.1c18-0.5,33.5,3.5,40.4,10.3c2.1,2.1,3.4,4.6,3.5,7.3C514.1,253.1,512.6,256,510.2,258.4z M364.2,211.7   c0.6-0.6,1.2-1.2,1.8-1.8c12.8-12.8,35.8-33.1,137.5-33.1c3,0,5.7,0.1,8.5,0.1L500,199.9c-70.4,0-116.7,23.9-125.1,35.3   c-3.6,5-10.1-2.6-12.3-7.4C360,222.4,359.6,216.4,364.2,211.7z"/>
	<path fill="#FFFFFF" d="M679.3,309.6c0-31-25.5-51-25.5-51s-44.2,40.7-153.7,41.8c-109.6-1.1-153.9-41.9-153.9-41.9   s-25.5,20-25.5,51c0,31-1.8,431.5-1.9,482.4c0,51,105.6,76.5,165.7,76.5l30.9,0c60.1,0,165.7-25.5,165.7-76.5   C681.1,741.1,679.3,340.6,679.3,309.6z M665.7,457.2c0,0-132.8,6.8-149.5,133.3C496.1,742.4,330.1,761,330.1,761V640.9   c0,0,149.4,39.7,169.9-59.4c24.9-120.1,60.8-221,165.7-244.4C665.7,363.3,665.7,457.2,665.7,457.2z"/>
</g>
</svg>