<svg xmlns="http://www.w3.org/2000/svg" xmlns:xlink="http://www.w3.org/1999/xlink" version="1.1" id="Layer_1" x="0px" y="0px" viewBox="0 0 400.3 400" enable-background="new 0 0 400.3 400" xml:space="preserve">
<rect x="63" y="59" fill="#FFFFFF" width="264" height="235"/>
<g>
    <circle xmlns="http://www.w3.org/2000/svg" cx="200" cy="190" r="150" fill="#006838"/>
	<path fill="#FFFFFF" d=" M212.4,252.7c-5.2,7.1-13.2,11.3-21.6,11.3l-24.9,4.2   c-9.4,1.4-18.4-1.9-24.5-8.5l27.3-38.1l1.4-1.9l5.6-7.5l18.8-25.9l31.5-43.8c-15.1,10.8-32.5,18.4-51.8,21.2   c-32.9,5.6-64.9-2.8-90.4-20.2c18.4-24.9,46.1-42.8,79.1-48.5c30.6-5.2,60.2,1.4,84.7,16.5l26.8-37.2l5.2,3.8l-26.4,37.2   c5.2,4.2,8.9,9.9,10.4,16.9l4.7,29.2c1.4,7.1,0,14.1-4.7,20.2c-4.2,5.6-9.9,9.4-16.5,10.8c3.8,9.4,2.8,20.2-3.3,28.7   c-6.1,8.5-16,13.2-25.9,12.7C218,240,216.6,247.1,212.4,252.7z M263.7,267.3c-5.2,7.5-16,9.4-23.5,3.8c-7.5-5.2-9.4-16-3.8-23.5   c5.2-7.5,16-9.4,23.5-3.8C267,249.4,268.9,259.8,263.7,267.3z M270.3,229.2c-7.5-5.2-9.4-16-3.8-23.5c5.2-7.5,16-9.4,23.5-3.8   c7.5,5.2,9.4,16,3.8,23.5C288.6,232.5,277.8,234.4,270.3,229.2z M305.6,271.1c-7.5,1.4-14.1-3.8-15.5-11.3   c-1.4-7.5,3.8-14.1,11.3-15.5c7.5-1.4,14.1,3.8,15.5,11.3C317.8,262.6,312.6,269.6,305.6,271.1z"/>
	<circle fill="#006838" cx="241.6" cy="166.1" r="13.6"/>
	<circle fill="#006838" cx="190.7" cy="237.2" r="13.6"/>
    <circle fill="#006838" cx="219" cy="203.3" r="16.9"/>
</g>
</svg>