<svg xmlns="http://www.w3.org/2000/svg" xmlns:xlink="http://www.w3.org/1999/xlink" version="1.1" baseProfile="tiny" id="Layer_1" x="0px" y="0px" viewBox="0 0 1000 1000" xml:space="preserve">
<metadata><?xpacket begin="﻿" id="W5M0MpCehiHzreSzNTczkc9d"?>
<x:xmpmeta xmlns:x="adobe:ns:meta/" x:xmptk="Adobe XMP Core 5.6-c067 79.157747, 2015/03/30-23:40:42        ">
   <rdf:RDF xmlns:rdf="http://www.w3.org/1999/02/22-rdf-syntax-ns#">
      <rdf:Description rdf:about=""/>
   </rdf:RDF>
</x:xmpmeta>                     
<?xpacket end="w"?></metadata>
<g>
	<path fill="#FFFFFF" d="M460.7,460.8c-8.7,8.8-23.6,4.2-23.6,4.2c-150.6-72.4-296.2-1.1-309.9,3c-100,29.4,42.1,79.4,42.1,79.4   l-48.8,55.3l76.3,28.9l-34.6,66l82.8,6.9l-19.5,69.6l69.9-19.2l6.9,82.8l66-34.5l28.9,76.3l55.3-48.8c0,0,50,142.1,79.5,42.2   c4.1-13.8,75.4-159.4,3-309.9c0,0-4.6-15,4.2-23.7c8.8-8.7,23.7-4.2,23.7-4.2c150.6,72.4,296.1,1.1,309.9-3   c100-29.4-42.1-79.4-42.1-79.4l48.8-55.3l-76.3-28.9l34.5-66l-82.8-6.9l19.5-69.6l-69.9,19.2l-6.9-82.8l-66,34.6l-28.9-76.3   l-55.3,48.8c0,0-50-142.1-79.4-42.1c-4.1,13.8-75.4,159.3-3,309.9C465,437.1,469.4,451.9,460.7,460.8z"/>
</g>
</svg>