<svg xmlns="http://www.w3.org/2000/svg" xmlns:xlink="http://www.w3.org/1999/xlink" version="1.1" baseProfile="tiny" id="Layer_1" x="0px" y="0px" viewBox="0 0 1000 1000" xml:space="preserve">
<metadata><?xpacket begin="﻿" id="W5M0MpCehiHzreSzNTczkc9d"?>
<x:xmpmeta xmlns:x="adobe:ns:meta/" x:xmptk="Adobe XMP Core 5.6-c067 79.157747, 2015/03/30-23:40:42        ">
   <rdf:RDF xmlns:rdf="http://www.w3.org/1999/02/22-rdf-syntax-ns#">
      <rdf:Description rdf:about=""/>
   </rdf:RDF>
</x:xmpmeta>                          
<?xpacket end="w"?></metadata>
<g>
	<path fill="#FFFFFF" d="M616.4,118.7C425.6,71,232.3,187.1,184.7,377.9c-16,64.2-13.5,128.7,4.2,187.9l28.6-8.2   c-16.3-54.3-18.8-113.5-4.1-172.5c43.6-174.6,221.1-281.2,395.8-237.6s281.2,221.1,237.6,395.8c-43,172.2-216.3,278.1-388.5,239.2   l-7.2,28.8c188.4,43,377.5-72.4,424.5-260.8C923.3,359.6,807.2,166.3,616.4,118.7z M467.3,746.5c152.6,34,305.4-59.6,343.6-212.2   c38.7-155-55.6-312.1-210.6-350.8C445.2,144.7,288.2,239,249.4,394c-13.1,52.4-10.9,105.1,3.6,153.3l284.3-81.4L467.3,746.5z    M675,481.2c4-15.9,20.1-25.6,36-21.6c15.9,4,25.6,20.1,21.6,36c-4,15.9-20.1,25.6-36,21.6C680.7,513.2,671,497.1,675,481.2z    M660.6,630.5c-7.9,31.8-40.2,51.2-72,43.2c-31.8-7.9-51.2-40.2-43.2-72c7.9-31.8,40.2-51.1,72-43.2   C649.2,566.5,668.6,598.7,660.6,630.5z M408.7,322.9c-4,15.9-20.1,25.6-36,21.6c-15.9-4-25.6-20.1-21.6-36   c4-15.9,20.1-25.6,36-21.6C403,290.9,412.6,307,408.7,322.9z M508.4,350.9c-15.2-13.5-33-29.3-10.4-54.8   c9.9-11.1,17.6-17.9,23.8-21.7c-13.8-11.6-20.7-21.6-8.8-35.1c19.6-22.1,59.2-18.9,88.4,7.1s37,64.9,17.4,86.9   c-12.2,13.7-23.1,7.6-36.6-5.3c-2.5,6.7-8.1,15.2-18.2,26.6C541.4,380.2,523.6,364.4,508.4,350.9z M141.5,645.7l-27.8,8   c33.8,113.2,124.7,206.1,247.6,236.8c2.3,0.6,4.7,1,7,1.6l7-28c-2.3-0.5-4.7-1-7-1.6C255.9,834.5,172.6,749.3,141.5,645.7z    M176,635.8c27.6,91.7,101.4,166.9,201,191.7c2.3,0.6,4.7,1.1,7,1.6l68-272.4L176,635.8z M312,698.6c-17.4,0-31.5-14.1-31.5-31.5   s14.1-31.5,31.5-31.5c17.4,0,31.5,14.1,31.5,31.5S329.4,698.6,312,698.6z"/>
</g>
</svg>