<svg xmlns="http://www.w3.org/2000/svg" xmlns:xlink="http://www.w3.org/1999/xlink" xmlns:svgjs="http://svgjs.com/svgjs" version="1.1" width="512" height="512" x="0" y="0" viewBox="0 0 512 512" style="enable-background:new 0 0 512 512" xml:space="preserve" class=""><g><path d="M219.442 426.2c-17.598 0-31.914 14.317-31.914 31.914v21.972c0 17.598 14.317 31.913 31.914 31.913 17.598 0 31.914-14.316 31.914-31.913v-21.972c0-17.596-14.317-31.914-31.914-31.914zm16.915 53.886c0 9.326-7.588 16.915-16.916 16.915-9.327 0-16.916-7.588-16.916-16.915v-21.972c0-9.327 7.588-16.916 16.916-16.916 9.327 0 16.916 7.588 16.916 16.916v21.972z" fill="#ffffff" data-original="#000000"/><path d="M496.995 112.87a271.09 271.09 0 0 0 2.177-41.958c-.612-23.784-12.307-45.059-32.084-58.37C447.219-.829 422.981-3.66 400.587 4.776L116.148 111.92a7.499 7.499 0 0 0-4.375 9.661 7.5 7.5 0 0 0 9.661 4.375L405.873 18.812c17.796-6.704 37.053-4.452 52.839 6.172 15.697 10.564 24.979 27.445 25.466 46.313 2.807 109.016-63.915 208.105-166.029 246.569-102.115 38.465-217.629 8.02-287.442-75.757-12.083-14.499-16.245-33.308-11.419-51.604 4.854-18.398 17.843-32.795 35.635-39.498l38.757-14.599a7.5 7.5 0 0 0-5.286-14.036l-38.757 14.599c-22.395 8.436-38.743 26.555-44.85 49.709-6.081 23.051-.832 46.754 14.399 65.032A271.182 271.182 0 0 0 48.49 281.77c20.914 57.976 59.707 83.931 59.707 83.931v15.249a7.498 7.498 0 0 0 7.499 7.499 7.498 7.498 0 0 0 7.499-7.499v-52.58a272.47 272.47 0 0 0 50.613 15.507c-9.658 2.629-16.782 11.471-16.782 21.95v58.652c0 9.327-7.588 16.916-16.916 16.916-9.327 0-16.916-7.588-16.916-16.916v-12.831a7.498 7.498 0 0 0-7.499-7.499 7.498 7.498 0 0 0-7.499 7.499v12.831c0 17.598 14.317 31.914 31.914 31.914 17.598 0 31.914-14.317 31.914-31.914V408.47c26.249 11.75 59.625 20.156 97.981 20.908 28.732.563 57.037-5.184 84.323-15.462 58.881-22.179 105.992-65.773 132.653-122.752 26.349-56.305 29.876-119.547 10.014-178.294zm-388.8 232.968a221.275 221.275 0 0 1-32.664-43.15 270.982 270.982 0 0 0 32.664 18.905v24.245zm63.828 46.081v-23.623a205.448 205.448 0 0 0 15.504 7.637v5.185c0 7.735 2.768 14.835 7.363 20.365a227.315 227.315 0 0 1-22.867-9.564zm30.503-10.801v-15.291c0-7.817-3.965-14.725-9.987-18.822a269.393 269.393 0 0 0 43.818 2.169v31.944c0 9.327-7.588 16.916-16.916 16.916-9.327-.001-16.915-7.589-16.915-16.916zm270.871-96.309c-24.994 53.414-69.157 94.28-124.355 115.073-30.073 11.328-61.45 16.052-93.251 14.05a225.788 225.788 0 0 1-24.997-2.993 32.079 32.079 0 0 0 18.542-18.654c6.73.681 13.493 1.037 20.262 1.037 24.475 0 48.987-4.43 72.034-13.11 62.616-23.586 109.691-76.474 125.926-141.476a7.5 7.5 0 0 0-14.552-3.634c-15.042 60.223-58.652 109.224-116.66 131.074-27.099 10.206-56.375 14.061-84.989 11.245v-29.124a271.015 271.015 0 0 0 72.079-16.394c83.83-31.576 145.114-101.759 167.015-185.504 9.181 46.537 3.398 94.701-17.054 138.41z" fill="#ffffff" data-original="#000000"/><path d="M314.984 117.583c-12.405 0-22.498 10.093-22.498 22.498 0 12.405 10.093 22.498 22.498 22.498 12.405 0 22.498-10.093 22.498-22.498 0-12.405-10.093-22.498-22.498-22.498zm0 29.998c-4.136 0-7.499-3.364-7.499-7.499 0-4.136 3.364-7.499 7.499-7.499 4.136 0 7.499 3.364 7.499 7.499s-3.364 7.499-7.499 7.499zM365.766 176.713c-12.405 0-22.498 10.093-22.498 22.498 0 12.405 10.093 22.498 22.498 22.498s22.498-10.093 22.498-22.498c0-12.405-10.093-22.498-22.498-22.498zm0 29.998c-4.136 0-7.499-3.364-7.499-7.499 0-4.136 3.364-7.499 7.499-7.499 4.136 0 7.499 3.364 7.499 7.499s-3.364 7.499-7.499 7.499zM380.764 90.766c-12.405 0-22.498 10.093-22.498 22.498s10.093 22.498 22.498 22.498c12.405 0 22.498-10.093 22.498-22.498s-10.093-22.498-22.498-22.498zm0 29.998c-4.136 0-7.499-3.364-7.499-7.499s3.364-7.499 7.499-7.499 7.499 3.364 7.499 7.499-3.363 7.499-7.499 7.499z" fill="#ffffff" data-original="#000000"/><circle cx="288.706" cy="206.713" r="7.499" fill="#ffffff" data-original="#000000"/><circle cx="243.86" cy="120.32" r="7.499" fill="#ffffff" data-original="#000000"/><circle cx="231.651" cy="174.695" r="7.499" fill="#ffffff" data-original="#000000"/></g></svg>