<svg xmlns="http://www.w3.org/2000/svg" xmlns:xlink="http://www.w3.org/1999/xlink" version="1.1" baseProfile="tiny" id="Layer_1" x="0px" y="0px" viewBox="0 0 1000 1000" xml:space="preserve">
<metadata><?xpacket begin="﻿" id="W5M0MpCehiHzreSzNTczkc9d"?>
<x:xmpmeta xmlns:x="adobe:ns:meta/" x:xmptk="Adobe XMP Core 5.6-c067 79.157747, 2015/03/30-23:40:42        ">
   <rdf:RDF xmlns:rdf="http://www.w3.org/1999/02/22-rdf-syntax-ns#">
      <rdf:Description rdf:about=""/>
   </rdf:RDF>
</x:xmpmeta>                          
<?xpacket end="w"?></metadata>
<g>
	<path fill="#FFFFFF" d="M102.8,625.5v35.2c8.7,59,199.8,228.6,243.5,228.6h307.4c43.7,0,234.8-169.6,243.5-228.6v-35.2L102.8,625.5   L102.8,625.5z"/>
	<g>
		<path fill="#FFFFFF" d="M672.4,436.3c1.4-1.1,34.7-27.2,36.5-59.3l0,0c0.3-5.5-3.9-10.2-9.4-10.5s-10.2,3.9-10.5,9.4l0,0    c-1.3,23-28.5,44.5-28.8,44.7c0.5-0.4,1.1-0.8,1.8-1.1l-1.7,1.1c-4.3,3.4-5.1,9.6-1.8,13.9C661.8,438.9,668,439.7,672.4,436.3    L672.4,436.3z"/>
	</g>
	<g>
		<path fill="#FFFFFF" d="M688.4,569.2c-12.2-3.2-37.5-3.6-46.1,17.5l0,0c-2.1,5.1,0.4,10.9,5.5,13c5.1,2.1,10.9-0.4,13-5.5l0,0    c4.2-10.2,22.4-5.8,22.6-5.7l0,0c5.3,1.4,10.7-1.8,12.1-7.1C696.9,576,693.7,570.5,688.4,569.2L688.4,569.2z"/>
	</g>
	<path fill="#FFFFFF" d="M879.4,527.8c-35.6,16.3-78.4,60.6-63,68.7c15.4,8.1,37.4-5,61-23.7C900.9,554.2,905.9,515.6,879.4,527.8z"/>
	<g>
		<path fill="#FFFFFF" d="M595.3,403.6c-15.8,0.7-37.8,4-47.1,25.2c0,0-1.4,3.2-1.4,3.2c-3.4,7.6-6.9,15.4-3.5,23.6    c3.3,8.2,12,12.4,19.2,15.2c23.7,9.3,52.2,4.1,64.7-11.8c6.9-8.8,7.3-22.4,1-34.8C621.2,411,608.7,403.1,595.3,403.6z     M611.4,446.7c-6.2,8-25,12.2-41.8,5.6c-6.8-2.7-8.1-4.4-8.1-4.4c0.1,0.1,0.2,0.5,0.2,0.7c0-1.3,1.8-5.4,3.2-8.4l1.5-3.4    c2.6-6,8.3-12.4,29.7-13.3c8.4-0.3,13,7.4,14.2,9.8C613.2,438.9,613.1,444.5,611.4,446.7z"/>
	</g>
	<g>
		<path fill="#FFFFFF" d="M467.7,413.8c-16.7-1.9-29.6,9.4-41.3,21.2c-5.7,5.7-14.4,14.3-13.8,25.6c0.3,7.5,4.5,14.5,12.8,21.4    l3.4,2.9c15.2,12.8,25.7,20,49.8,5.9c21.7-12.6,23-22.5,22.5-35c-0.1-1.3-0.1-2.7-0.1-4.1C501,434,480.2,415.2,467.7,413.8z     M481.1,451.6c0,1.8,0.1,3.5,0.1,4.9c0.3,7.4,0.4,9.4-12.6,17c-13.2,7.7-14.5,6.6-27-3.9l-3.6-3c-4.1-3.4-5.6-5.9-5.6-7    c-0.1-2.5,5.8-8.4,8-10.6c10.1-10.1,17.9-16.3,25-15.5c-0.1,0-0.2,0-0.2,0C469.7,434.5,481.1,445.2,481.1,451.6z"/>
	</g>
	<path fill="#FFFFFF" d="M552.7,521.5c-20-9.1-67.8-27.6-79.4-3.1c-2.5,5.2-7.5,10.8-12,15.8c-7.7,8.7-15,16.9-12.6,26.5   c1.4,5.6,5.7,9.7,12.7,12.3c23.4,8.5,52.6,16.8,71.4,5.2c15.5-9.4,20.6-28.6,23.4-38.9c0.5-1.8,1.1-4,1.3-4.6   C559.6,529.9,557.6,523.7,552.7,521.5z M522.4,561.3c-12.5,7.6-41.1-2.2-52.6-6.4c1.7-2.3,4.3-5.2,6.3-7.5   c5.3-5.9,11.3-12.7,15-20.4c3.7-3.1,23.7,0.4,45.3,9.1C534.2,544.4,530.5,556.4,522.4,561.3z M844.7,465.7   c-0.9-21.6-3.8-26.6-12.7-36.3l-1.2-1.3c-7.6-8.4-17.8-12-28.8-10c-16.8,3.1-31,18-35.9,30.5c-1.3,3.3-2.9,6.5-4.5,9.6   c-5.6,11-12.6,24.8-0.2,41c16,20.9,33,22.3,56.6,4.5c5.5-4.1,9.6-6.5,12.8-8.4C843.2,488,845.4,483.3,844.7,465.7z M531.5,330.8   c-13.8-2.1-46.8-5.1-54.2,12.6c-5.9,14.2-4.1,40.6-3.8,43.5c0.4,4.6,3.9,8.4,8.5,9.1c4.5,0.6,44,6,62.8-3.4   c11.3-5.7,16.8-18.9,14-33.7C555.7,343.3,544.5,331.9,531.5,330.8z"/>
	<path fill="#FFFFFF" d="M203,419.6L203,419.6l0.3,0c-4.2-28.5-6.7-45.4-11-69.8c-24-137.2-45.9-241-61.2-239.1c-0.1,0-0.1,0-0.2,0   c0,0-0.1,0-0.1,0c0,0-0.1,0-0.1,0c0,0-0.1,0-0.2,0c-15.3,2.1-3.4,119.6,19,254.4c4.1,24.5,6.5,33.7,11.4,62.6   c0,0-44,33.2-34.8,75.5c4.6,21.1,22.3,65,34.7,93.2c1.9,4.4,8.6,2.6,8-2.2c-4.9-40.8-4.7-81.4,5-81.4c6.2-1.6,19.4,38,30.3,74.7   c1.4,4.6,8.2,3.6,8.2-1.2c0-32.6,1.1-79.6,7.3-79.9c9.7-0.5,19.3,37.3,24.6,77.4c0.6,4.8,7.5,4.9,8.3,0.1   c4.7-30.4,10.4-77,9.3-98.5C259.8,442.2,203,419.6,203,419.6z"/>
	<path fill="#FFFFFF" d="M765.9,546.7c-2.5-5.9-13.4-22.4-52.6-13.6c0.4-12.1-3.7-23.7-12-32.5c-10.6-11.3-25.5-15.6-38.7-11.1   c-8,2.7-21.1,10.7-27.2,34.1c-13.3-5-26.3-5-36.4,0.5c-9.3,5.1-14.9,14.3-15.1,24.8c-0.2,15.7,11.5,31.5,32.1,43.4   c4.8,2.8,10.8,1.1,13.6-3.6c2.8-4.8,1.1-10.8-3.6-13.6c-16.4-9.5-22.2-19.7-22.1-26c0.1-4.2,2.6-6.4,4.7-7.6   c5.3-2.9,15.8-3.1,29,5.2c2.9,1.8,6.5,2,9.6,0.5c3.1-1.5,5.2-4.5,5.6-7.9c1.9-16.9,7.8-28.3,16.2-31.1c5.8-1.9,12.8,0.4,18,5.9   c7.1,7.5,8.7,18.4,4.4,29.1c-1.5,3.6-0.7,7.7,2,10.5c2.7,2.8,6.7,3.8,10.4,2.6c29.3-9.9,42.5-5.5,44-2c1.7,3.9-4.5,16.7-26.5,28.3   c-4.9,2.6-6.7,8.6-4.2,13.4c2.6,4.9,8.6,6.7,13.4,4.2C759,585.4,773.2,563.8,765.9,546.7z M392.9,540.6c8-13.5,8.9-29.5,5.4-41.7   c-4-13.8-13.2-23.1-24.6-24.8c-7.4-1.1-17.9,0.6-29.5,12.5c-6.3-9.9-14.3-16.3-23.1-17.8c-8.4-1.4-16.4,1.6-21.9,8.4   c-9.9,12.1-10.2,33.6-0.9,57.5c2,5.1,7.8,7.6,12.9,5.7c5.1-2,7.6-7.8,5.6-12.9c-8.4-21.6-5.4-33.9-2.2-37.7   c1.2-1.5,2.3-1.6,3.2-1.4c3.1,0.5,9.8,5.4,15,20c1.3,3.5,4.4,6.1,8.2,6.5s7.4-1.3,9.5-4.4c8.7-13.3,16.2-17.3,20.2-16.7   c3.4,0.5,6.7,4.7,8.5,10.7c2.9,9.9,1.2,23.9-9,32.8c-2.7,2.3-3.9,5.9-3.2,9.4c0.7,3.5,3.2,6.4,6.6,7.5c23.7,8,30.5,18.9,29.2,24.2   c-1.3,5.6-11.4,10.4-27.6,8.3c-5.4-0.7-10.4,3.1-11.1,8.6c-0.7,5.4,3.1,10.4,8.6,11.1c29.6,3.8,46.2-9.1,49.5-23.6   C425.1,569.9,418.5,552.9,392.9,540.6z"/>
	<g>
		<path fill="#FFFFFF" d="M361.2,557.6c-1.1-1.6-11.1-15.3-24.8-16.9c-6.5-0.8-12.7,1.2-17.9,5.7l0,0c-4.2,3.6-4.6,9.9-1,14    c3.6,4.1,9.9,4.6,14,1l0,0c1.3-1.1,2-1,2.4-1c3.4,0.4,8.5,5.3,11,8.7l0,0c3.2,4.5,9.4,5.6,13.9,2.4    C363.3,568.3,364.3,562.1,361.2,557.6L361.2,557.6z"/>
	</g>
</g>
</svg>