<svg xmlns="http://www.w3.org/2000/svg" xmlns:xlink="http://www.w3.org/1999/xlink" version="1.1" id="Layer_1" x="0px" y="0px" viewBox="450 -450 1000 1000" style="enable-background:new 450 -450 1000 1000;" xml:space="preserve">
<metadata><?xpacket begin="﻿" id="W5M0MpCehiHzreSzNTczkc9d"?>
<x:xmpmeta xmlns:x="adobe:ns:meta/" x:xmptk="Adobe XMP Core 5.6-c067 79.157747, 2015/03/30-23:40:42        ">
   <rdf:RDF xmlns:rdf="http://www.w3.org/1999/02/22-rdf-syntax-ns#">
      <rdf:Description rdf:about=""/>
   </rdf:RDF>
</x:xmpmeta>                       
<?xpacket end="w"?></metadata>
<style type="text/css">
	.st0{fill:#FFFFFF;}
</style>
<g>
	<path class="st0" d="M1050.9-136.1c-1.2,43.1-6.7,80.7-6.7,80.7c-4.1-18.4-29.7-52.8-56.3-84.5c-12.5-0.4-25.2-0.7-37.8-0.7   c-74.5,0-145.1,7.1-208.3,19.8c11,45.7,15.6,94.5,15.6,94.5c-9.4-19.9-48.4-50.3-87.2-76.8C544-65.7,461.6-3.5,461.6,66.7h976.8   C1438.4-33,1272.2-116.4,1050.9-136.1z"/>
	<path class="st0" d="M1168.3,204.1c-97.7,0-177.1-49.6-179.1-111.4H934c4.1,39.6,35.9,82.6,35.9,82.6c-39.6,18-54.4,15.9-81.5-19   c-7.8,19.9,10,80.4-30.5,67.2c-23.9-7.8-19.4-79.9-48.7-73c-18.4,4.3-23.6,178.4-82.4,74.2c-7.1-12.7-3.2-46.6-11.9-54.5   c-20.6-19.1-15.6,2.9-31.6,5.1c-11.5,1.6-9.6,22.4-29.3,13.7c-18.5-8.2-6.1-29.7-15-38.2c-37.9-35.5-16.9,20.5-64.1,8.9   c-17.7-4.4-45-46.3-52.1-66.9h-61.1C464.4,216.3,682,316.2,950,316.2c268,0,485.6-99.8,488.4-223.4h-91.1   C1345.3,154.5,1266,204.1,1168.3,204.1z"/>
</g>
</svg>