<svg xmlns="http://www.w3.org/2000/svg" xmlns:xlink="http://www.w3.org/1999/xlink" version="1.1" baseProfile="tiny" id="Layer_1" x="0px" y="0px" viewBox="0 0 1000 1000" xml:space="preserve">
<metadata><?xpacket begin="﻿" id="W5M0MpCehiHzreSzNTczkc9d"?>
<x:xmpmeta xmlns:x="adobe:ns:meta/" x:xmptk="Adobe XMP Core 5.6-c067 79.157747, 2015/03/30-23:40:42        ">
   <rdf:RDF xmlns:rdf="http://www.w3.org/1999/02/22-rdf-syntax-ns#">
      <rdf:Description rdf:about=""/>
   </rdf:RDF>
</x:xmpmeta>
<?xpacket end="w"?></metadata>
<g>
	<path fill="#FFFFFF" d="M627.5,400.8l37.3-223.4c0.7-4.3-0.3-8.8-2.8-12.3c-2.6-3.6-6.4-6-10.8-6.7l-65.3-10.9   c-9-1.5-17.5,4.6-19,13.6l-17.3,103.3V119.6c0-9.1-7.4-16.5-16.5-16.5h-66.2c-9.1,0-16.5,7.4-16.5,16.5v144.8L433.1,161   c-1.5-9-10.1-15.1-19-13.6l-65.2,10.9c-4.4,0.7-8.2,3.1-10.8,6.7c-2.5,3.6-3.5,8-2.8,12.3l37.3,223.4H627.5z"/>
	<path fill="#FFFFFF" d="M770.1,400.8l25.5-85c1.3-4.2,0.8-8.7-1.3-12.6c-2.1-3.9-5.6-6.7-9.8-8l-63.4-19c-8.8-2.6-18,2.3-20.6,11.1   l-34,113.5H770.1z"/>
	<path fill="#FFFFFF" d="M229.8,400.8h103.6l-34-113.5c-2.6-8.8-11.8-13.7-20.6-11.1l-63.4,19c-4.2,1.3-7.7,4.1-9.8,8   c-2.1,3.9-2.5,8.4-1.3,12.6L229.8,400.8z"/>
	<path fill="#FFFFFF" d="M797.7,433.9H202.3c-4.8,0-9.4,2.1-12.5,5.8c-3.1,3.7-4.5,8.5-3.8,13.3L252.1,883c1.3,8.5,8.9,14.5,17.6,14   c8.6-0.7,15.3-7.8,15.3-16.5c0-39.4,94.4-70.3,215-70.3c120.6,0,215,30.9,215,70.3c0,8.6,6.6,15.8,15.3,16.5c0.5,0,0.9,0,1.3,0   c8.1,0,15.1-6,16.4-14l66.2-430.1c0.7-4.8-0.7-9.6-3.8-13.3C807.2,436,802.6,433.9,797.7,433.9z"/>
</g>
</svg>