<svg xmlns="http://www.w3.org/2000/svg" xmlns:xlink="http://www.w3.org/1999/xlink" version="1.1" baseProfile="tiny" id="Layer_1" x="0px" y="0px" viewBox="0 0 100 100" xml:space="preserve">
<g>
	<path fill="#555555" d="M33.1,43.6c-0.1-0.1-0.2-0.1-0.3-0.1c-0.1,0-0.2,0-0.3,0.1l-3.2,3.1l-3.3,3.2c-0.2,0.2-0.2,0.4,0,0.6   l2.9,2.8c0.2,0.2,0.4,0.2,0.6,0l3.3-3.2l3.1-3c0.2-0.2,0.2-0.4,0-0.6L33.1,43.6z M28.1,51c-0.5,0-0.9-0.4-0.9-0.9   c0-0.5,0.4-0.9,0.9-0.9c0.5,0,0.9,0.4,0.9,0.9C29,50.6,28.6,51,28.1,51z M30.5,51c-0.5,0-0.9-0.4-0.9-0.9c0-0.5,0.4-0.9,0.9-0.9   c0.5,0,0.9,0.4,0.9,0.9C31.4,50.6,31,51,30.5,51z M35.9,46.9l-3,2.9l-3.3-3.1l3-2.9c0,0,0.1-0.1,0.2-0.1s0.1,0,0.2,0.1l2.9,2.8   C36,46.6,36,46.8,35.9,46.9z"/>
	<path fill="#555555" d="M31.7,61.1c-1.8,0-3.2,1.4-3.2,3.1c0,1.7,1.4,3.1,3.2,3.1c1.8,0,3.2-1.4,3.2-3.1   C34.9,62.5,33.5,61.1,31.7,61.1z M31.7,65.8c-0.9,0-1.7-0.7-1.7-1.6c0-0.9,0.8-1.6,1.7-1.6c0.9,0,1.7,0.7,1.7,1.6   C33.4,65.1,32.6,65.8,31.7,65.8z"/>
	<path fill="#555555" d="M52.3,61.1c-1.8,0-3.2,1.4-3.2,3.1c0,1.7,1.4,3.1,3.2,3.1s3.2-1.4,3.2-3.1C55.5,62.5,54.1,61.1,52.3,61.1z    M52.3,65.8c-0.9,0-1.7-0.7-1.7-1.6c0-0.9,0.8-1.6,1.7-1.6c0.9,0,1.7,0.7,1.7,1.6C54,65.1,53.3,65.8,52.3,65.8z"/>
	<ellipse fill="#555555" cx="32.8" cy="46.6" rx="0.9" ry="0.9"/>
	<path fill="#555555" d="M77.8,44.5c0.2-0.3,0.4-0.6,0.6-0.8h-3.3c0.1,0.2,0.1,0.4,0.2,0.6C75.6,45.1,76.3,46.6,77.8,44.5z"/>
	<path fill="#555555" d="M50,0C22.4,0,0,22.4,0,50c0,27.6,22.4,50,50,50s50-22.4,50-50C100,22.4,77.6,0,50,0z M80.6,38.3   c0.2-0.6,0.7-0.8,0.8-0.8l0.1,0.4l0.1,0.4c0,0,0,0,0,0c0,0-0.2,0.1-0.3,0.3c-0.1,0.2,0.1,0.6,0.4,1c0.5,0.6,0.7,1.1,0.6,1.7   c-0.1,0.7-0.6,1-0.7,1l-0.4-0.7c0,0,0.3-0.2,0.4-0.5c0-0.3-0.1-0.6-0.4-1C80.6,39.3,80.4,38.8,80.6,38.3z M78.6,38.3   c0.2-0.6,0.7-0.8,0.8-0.8l0.1,0.4l0.1,0.4c0,0,0,0,0,0c0,0-0.2,0.1-0.3,0.3c-0.1,0.2,0.1,0.6,0.4,1c0.5,0.6,0.7,1.1,0.6,1.7   c-0.1,0.7-0.6,1-0.7,1l-0.4-0.7c0,0,0.3-0.2,0.4-0.5c0-0.3-0.1-0.6-0.4-1C78.6,39.3,78.5,38.8,78.6,38.3z M76.6,38.3   c0.2-0.6,0.7-0.8,0.8-0.8l0.3,0.7l-0.1-0.4l0.1,0.4c0,0,0,0,0,0c0,0-0.2,0.1-0.3,0.3c-0.1,0.2,0.1,0.6,0.4,1   c0.5,0.6,0.7,1.1,0.6,1.7c-0.1,0.7-0.6,1-0.7,1l-0.4-0.7c0,0,0.3-0.2,0.4-0.5c0-0.3-0.1-0.6-0.4-1C76.7,39.3,76.5,38.8,76.6,38.3z    M67.2,29.7c1.9,0,3.4,1.5,3.4,3.4c0,1.9-1.5,3.4-3.4,3.4c-1.9,0-3.4-1.5-3.4-3.4C63.8,31.2,65.3,29.7,67.2,29.7z M57.9,64.2   c-0.1,0-0.3,0-0.7,0c0,0,0,0,0,0c0,2.6-2.2,4.7-4.9,4.7c-2.7,0-4.9-2.1-4.9-4.7c0,0,0,0,0,0c-3.5,0-7.4,0-10.9,0c0,0,0,0,0,0   c0,2.6-2.2,4.7-4.9,4.7c-2.7,0-4.9-2.1-4.9-4.7c0,0,0,0,0,0c-0.5,0-0.8,0-0.8,0c-0.7,0-1.2-0.4-1.3-1.3h-8.6   c-0.4,0-0.8-0.3-0.8-0.7c0-0.4,0.3-0.7,0.8-0.7H25c0.1-0.3,0.1-0.6,0.2-0.9h-4.9c-0.4,0-0.8-0.3-0.8-0.7c0-0.4,0.3-0.7,0.8-0.7h5.4   c0.2-0.3,0.4-0.6,0.5-0.9h-8.1c-0.4,0-0.8-0.3-0.8-0.7c0-0.4,0.3-0.7,0.8-0.7h9.3c0.3-0.3,0.5-0.5,0.7-0.6c0.4-0.3,0.3-0.5,0.2-0.5   h-7c-0.3,0-0.5-0.2-0.5-0.5v-1.4c0-0.3,0.2-0.5,0.5-0.5h1.5v-0.1v-9.2h-1.1c-0.3,0-0.5-0.2-0.5-0.5v-1.7c0-0.3,0.2-0.5,0.5-0.5h1.1   h16.9h0.9c0.3,0,0.5,0.2,0.5,0.5v1.7c0,0.3-0.2,0.5-0.5,0.5h-0.9v0.2v9.1c0,0,0,0,0,0H41c0.3,0,0.5,0.2,0.5,0.5v1.4   c0,0.3-0.2,0.5-0.5,0.5h-0.7c-1.1,0.3-3.1,1.2-3.1,3.6c0,2.7,1.5,2.6,1.5,2.6s7,0,7.3,0c0.3,0,0.6-0.2,0.7-0.6   c1.2-6.6-0.3-10.9-0.5-11.6c-0.3-1-0.6-1.1-0.6-1.1s-1.9,0.1-2.4,0c-0.5-0.1-0.4-0.7-0.1-0.8c0.2-0.1,1.2-0.4,2.2-0.6   c1-0.2,1.3,0.3,1.7,0.7c0.4,0.4,0.3-0.6,1.5-1.2c0.8-0.4,2-0.2,2-0.2s0,3.9,0,4.9c-0.4,0.3-1.2,0.1-1.6,0.1c-0.2,0-0.3,0.2-0.2,0.5   c0.1,0.3,0.4,1.4,1.3,1.5c0.9,0.2,4.1,1.2,5.7,2.7c1.6,1.5,3.5,5,3.7,6.2C59.6,63.3,59.3,64.2,57.9,64.2z M84.5,43.7h-3.9   c0.2,0.4,0.2,0.8,0.1,1.4c-0.2,0.9-1.8,2.5-3.6,3.4c-3.6,1.9-5.4-4.8-5.6-6.1c0,2.4,0.1,4.9,0.1,7.3c0,0.2,0.1,0.3,0.1,0.5   c0,5.6,0,11.2,0.2,16.8c0.1,2.5-3.8,2.5-3.9,0c-0.2-4.4-0.2-8.8-0.2-13.2c-0.2,0-0.4,0-0.6,0c0,4.4-0.1,8.8-0.2,13.2   c-0.1,2.5-4,2.5-3.9,0c0.2-5.6,0.2-11.2,0.2-16.8c0,0,0-0.1,0-0.1c0-0.1,0-0.2,0-0.2v-7.1c-1,1.9-1,4.7-0.9,6.5   c0.2,2.2-3.2,2.1-3.4,0c-0.5-5,1.3-11.5,6.9-12.1c0.8-0.2,1.7-0.2,2.6,0c3.8,0.3,5.4,3.4,6.4,6.3v-1.1h9.5V43.7z"/>
	<polygon fill="#555555" points="79.6,38.2 79.5,37.8 79.5,37.8  "/>
	<polygon fill="#555555" points="81.6,38.2 81.4,37.8 81.4,37.8  "/>
</g>
</svg>