<svg xmlns="http://www.w3.org/2000/svg" xmlns:xlink="http://www.w3.org/1999/xlink" version="1.1" baseProfile="tiny" id="Layer_1" x="0px" y="0px" viewBox="0 0 100 100" xml:space="preserve">
<g>
	<path fill="#555555" d="M50,40.6l0,31l21.2-10.4V30.6l-20.6,10H50z M55,44.2l10.4-5.1c0.7-0.4,1.6-0.1,2,0.7c0.4,0.7,0.1,1.6-0.7,2   l-10.4,5.1C56.1,47,55.9,47,55.6,47c-0.6,0-1.1-0.3-1.4-0.8C53.9,45.4,54.2,44.5,55,44.2z M55,52.2l10.4-5.1c0.7-0.4,1.6-0.1,2,0.7   c0.4,0.7,0.1,1.6-0.7,2l-10.4,5.1c-0.2,0.1-0.4,0.2-0.7,0.2c-0.6,0-1.1-0.3-1.4-0.8C53.9,53.5,54.2,52.6,55,52.2z M55,60.2   l10.4-5.1c0.7-0.4,1.6-0.1,2,0.7c0.4,0.7,0.1,1.6-0.7,2l-10.4,5.1c-0.2,0.1-0.4,0.2-0.7,0.2c-0.6,0-1.1-0.3-1.4-0.8   C53.9,61.5,54.2,60.6,55,60.2z"/>
	<path fill="#555555" d="M50,0C22.4,0,0,22.4,0,50c0,27.6,22.4,50,50,50s50-22.4,50-50C100,22.4,77.6,0,50,0z M74.2,62.2   c0,0.6-0.3,1.1-0.8,1.4L50.7,74.6c-0.2,0.1-0.4,0.2-0.7,0.2c-0.2,0-0.5-0.1-0.7-0.2L26.6,63.6c-0.5-0.3-0.8-0.8-0.8-1.4V28.1   c0-0.5,0.3-1,0.7-1.3c0.4-0.3,1-0.3,1.5-0.1L50,37.6l22.1-10.8c0.5-0.2,1-0.2,1.5,0.1c0.4,0.3,0.7,0.8,0.7,1.3V62.2z"/>
</g>
</svg>