<svg xmlns="http://www.w3.org/2000/svg" xmlns:xlink="http://www.w3.org/1999/xlink" version="1.1" baseProfile="tiny" id="Layer_1" x="0px" y="0px" viewBox="0 0 100 100" xml:space="preserve">
<g>
	<path fill="#555555" d="M50,53c-0.8,0-1.5,0.6-1.5,1.5v8.7c0,0.8,0.6,1.5,1.5,1.5s1.5-0.6,1.5-1.5v-8.7C51.5,53.7,50.8,53,50,53z"/>
	<path fill="#555555" d="M38.4,53c-0.8,0-1.5,0.6-1.5,1.5v8.7c0,0.8,0.6,1.5,1.5,1.5c0.8,0,1.5-0.6,1.5-1.5v-8.7   C39.8,53.7,39.2,53,38.4,53z"/>
	<path fill="#555555" d="M44.2,53c-0.8,0-1.5,0.6-1.5,1.5v8.7c0,0.8,0.6,1.5,1.5,1.5c0.8,0,1.5-0.6,1.5-1.5v-8.7   C45.6,53.7,45,53,44.2,53z"/>
	<path fill="#555555" d="M55.8,53c-0.8,0-1.5,0.6-1.5,1.5v8.7c0,0.8,0.6,1.5,1.5,1.5c0.8,0,1.5-0.6,1.5-1.5v-8.7   C57.3,53.7,56.6,53,55.8,53z"/>
	<path fill="#555555" d="M61.6,53c-0.8,0-1.5,0.6-1.5,1.5v8.7c0,0.8,0.6,1.5,1.5,1.5c0.8,0,1.5-0.6,1.5-1.5v-8.7   C63.1,53.7,62.4,53,61.6,53z"/>
	<path fill="#555555" d="M50,0C22.4,0,0,22.4,0,50c0,27.6,22.4,50,50,50s50-22.4,50-50C100,22.4,77.6,0,50,0z M47.8,42.5l14.5-17.4   c1-1.2,2.9-1.4,4.1-0.4c1.2,1,1.4,2.9,0.4,4.1L52.2,46.2c-0.6,0.7-1.4,1-2.2,1c-0.7,0-1.3-0.2-1.9-0.7   C46.9,45.5,46.7,43.7,47.8,42.5z M73.2,47.2c0,1.6-1.3,2.9-2.9,2.9L67.9,67c-0.3,2.1-2,3.6-4.1,3.6H36.2c-2.1,0-3.8-1.5-4.1-3.6   l-2.4-16.8c-1.6,0-2.9-1.3-2.9-2.9v-2.9c0-1.6,1.3-2.9,2.9-2.9h17.1l0,0c-0.9,1.1-1.3,2.6-0.9,4c0.6,2,2.3,3.2,4.2,3.2   c1.3,0,2.5-0.6,3.3-1.6l4.7-5.7h12.2c1.6,0,2.9,1.3,2.9,2.9V47.2z"/>
</g>
</svg>