<svg xmlns="http://www.w3.org/2000/svg" xmlns:xlink="http://www.w3.org/1999/xlink" version="1.1" baseProfile="tiny" id="Layer_1" x="0px" y="0px" viewBox="0 0 100 100" xml:space="preserve">
<g>
	<rect x="37" y="55.6" fill="#555555" width="7.5" height="13"/>
	<rect x="50.1" y="57.5" fill="#555555" width="14.9" height="7.4"/>
	<path fill="#555555" d="M50,0C22.4,0,0,22.4,0,50c0,27.6,22.4,50,50,50s50-22.4,50-50C100,22.4,77.6,0,50,0z M31.4,31.6   c0-1,0.8-1.9,1.9-1.9h35.5c1,0,1.9,0.8,1.9,1.9v3.7h0H31.4V31.6z M72.5,72.3h-43v-1.9c0-1,0.8-1.9,1.9-1.9V51.9h39.2v16.7   c1,0,1.9,0.8,1.9,1.8V72.3z M69.7,50.1c-2.1,0-3.8-1.6-3.9-3.7c0,0-0.1-0.6-0.8-0.6c-0.6,0-0.7,0.6-0.7,0.6   c-0.1,2.1-1.8,3.7-3.9,3.7c-2.1,0-3.8-1.6-3.9-3.7c0,0-0.1-0.6-0.8-0.6c-0.6,0-0.7,0.6-0.7,0.6c-0.1,2.1-1.8,3.7-3.9,3.7   c-2.1,0-3.8-1.6-3.9-3.7c0,0-0.1-0.6-0.8-0.6c-0.6,0-0.7,0.6-0.7,0.6c-0.1,2.1-1.8,3.7-3.9,3.7c-2.1,0-3.8-1.6-3.9-3.7   c0,0-0.1-0.6-0.8-0.6c-0.6,0-0.7,0.6-0.7,0.6c-0.1,2.1-1.8,3.7-3.9,3.7c-2.2,0-3.9-1.7-3.9-3.9c0-0.6,0.2-1.7,0.2-1.7l4.7-7.4h35.5   l4.7,7.4c0,0,0.2,1.1,0.2,1.7C73.6,48.4,71.8,50.1,69.7,50.1z"/>
</g>
</svg>