<svg xmlns="http://www.w3.org/2000/svg" xmlns:xlink="http://www.w3.org/1999/xlink" version="1.1" id="Capa_1" x="0px" y="0px" viewBox="-705 245.3 512 512" enable-background="new -705 245.3 512 512" xml:space="preserve">
<g>
	<path fill="#999999" d="M-429,425.7c0-10.6,7.1-13.1,12-13.1c5,0,30.5,0,30.5,0v-46.7l-42-0.2c-46.6,0-57.2,34.9-57.2,57.2V454   h-26.9v48.2h26.9c0,61.8,0,136.3,0,136.3h56.7c0,0,0-75.2,0-136.3h38.2l5-48.2H-429V425.7z"/>
	<path fill="#999999" d="M-449,245.3c-141.4,0-256,114.6-256,256s114.6,256,256,256s256-114.6,256-256S-307.6,245.3-449,245.3z    M-449,725.3c-123.5,0-224-100.5-224-224s100.5-224,224-224s224,100.5,224,224S-325.5,725.3-449,725.3z"/>
</g>
</svg>