<svg xmlns="http://www.w3.org/2000/svg" xmlns:xlink="http://www.w3.org/1999/xlink" version="1.1" id="Capa_1" x="0px" y="0px" viewBox="-705 245.3 512 512" enable-background="new -705 245.3 512 512" xml:space="preserve">
<g>
	<path fill="#999999" d="M-386.5,399.1h-125.3c-21.8,0-39.5,17.7-39.5,39.5v41.7v83.6c0,21.8,17.7,39.5,39.5,39.5h125.3   c21.8,0,39.5-17.7,39.5-39.5v-83.6v-41.7C-347.1,416.8-364.8,399.1-386.5,399.1z M-375.2,422.6l4.5,0v4.5v30.1l-34.5,0.1l-0.1-34.6   L-375.2,422.6z M-478.3,480.2c6.5-9.1,17.2-15,29.2-15c12,0,22.6,5.9,29.1,15c4.2,5.9,6.8,13.1,6.8,21c0,19.8-16.2,35.9-36,35.9   c-19.8,0-36-16.1-35.9-36C-485.1,493.3-482.6,486.1-478.3,480.2z M-367,563.8c0,10.8-8.8,19.6-19.6,19.6h-125.3   c-10.8,0-19.6-8.8-19.6-19.6v-83.6h30.5c-2.6,6.5-4.1,13.5-4.1,21c0,30.8,25,55.9,55.8,55.9c30.8,0,55.9-25.1,55.9-55.9   c0-7.4-1.5-14.5-4.2-21h30.5V563.8z"/>
	<path fill="#999999" d="M-449,245.3c-141.4,0-256,114.6-256,256s114.6,256,256,256s256-114.6,256-256S-307.6,245.3-449,245.3z    M-449,725.3c-123.5,0-224-100.5-224-224s100.5-224,224-224s224,100.5,224,224S-325.5,725.3-449,725.3z"/>
</g>
</svg>