<svg xmlns="http://www.w3.org/2000/svg" xmlns:xlink="http://www.w3.org/1999/xlink" version="1.1" baseProfile="tiny" id="Layer_1" x="0px" y="0px" viewBox="0 0 1383 360" xml:space="preserve">
<g>
	<path fill="#999999" d="M277,80.9c-24.8,0-45,20.2-45,45v117.3c0,24.8,20.2,45,45,45s45-20.2,45-45V125.9   C322,101,301.8,80.9,277,80.9z M294,243.1c0,9.4-7.6,17-17,17s-17-7.6-17-17V125.9c0-9.4,7.6-17,17-17s17,7.6,17,17V243.1z"/>
	<path fill="#999999" d="M507.3,80.9c-24.8,0-45,20.2-45,45v117.3c0,24.8,20.2,45,45,45s45-20.2,45-45V125.9   C552.3,101,532.1,80.9,507.3,80.9z M524.3,243.1c0,9.4-7.6,17-17,17s-17-7.6-17-17V125.9c0-9.4,7.6-17,17-17s17,7.6,17,17V243.1z"/>
	<path fill="#999999" d="M623.3,80.9c-24.8,0-45,20.2-45,45v117.3c0,24.8,20.2,45,45,45c24.8,0,45-20.2,45-45V125.9   C668.3,101,648.1,80.9,623.3,80.9z M640.3,243.1c0,9.4-7.6,17-17,17s-17-7.6-17-17V125.9c0-9.4,7.6-17,17-17s17,7.6,17,17V243.1z"/>
	<polygon fill="#999999" points="345,115.8 400,115.8 361.9,280 396.1,280 434.1,115.8 434.1,115.8 436.5,107.2 436.5,85.8    345,85.8  "/>
	<rect x="680" y="170.8" fill="#999999" width="55" height="27.5"/>
	<rect x="829.5" y="170.8" fill="#999999" width="55" height="27.5"/>
	<path fill="#999999" d="M738.7,106.8v28.7h27.4V280h33.1V122.4v-21.3v-16c0,0-6.2,0-23.6,0C762.7,111.4,738.7,106.8,738.7,106.8z"/>
	<path fill="#999999" d="M982.3,134.8c0-19.7-2-51.7-44.7-51.7c-42.7,0-47.7,33.7-47.7,43c0,9.3,0,15,0,15h32c0,0,0-10.3,0-13.3   s1-14.7,14.7-14.7c8.7,0,12.3,6,12.3,22s-10,31.7-28,54.3c-18,22.7-32.7,42.5-29.7,90.6c14.7,0,89.7,0,89.7,0v-29.9h-55   c0,0-3.3-16.7,22-45.7S982.3,154.4,982.3,134.8z"/>
	<path fill="#999999" d="M1212.7,134.8c0-19.7-2-51.7-44.7-51.7s-47.7,33.7-47.7,43c0,9.3,0,15,0,15h32c0,0,0-10.3,0-13.3   s1-14.7,14.7-14.7c8.7,0,12.3,6,12.3,22s-10,31.7-28,54.3c-18,22.7-32.7,42.5-29.7,90.6c14.7,0,89.7,0,89.7,0v-29.9h-55   c0,0-3.3-16.7,22-45.7C1203.7,175.4,1212.7,154.4,1212.7,134.8z"/>
	<path fill="#999999" d="M1040.7,151.8c0-12.3-0.3-36.3-0.3-36.3h49V85.1h-78l-2,99.7h29c0,0,4.7-7.7,14-7.7   c9.3,0,10.3,11.3,10.3,18c0,6.7,0,40,0,45.7s-4.7,12.7-11.7,12.7s-12.7-5.7-12.7-14c0-8.3,0-19,0-19h-32.7c0,0-2.3,31.7,8.7,48   c11,16.3,33,15,40.3,15c7.3,0,35.3-6,39-32.3c3.7-26.3,2.3-73.3-4.7-86C1082,152.4,1065.7,139.1,1040.7,151.8z"/>
	<path fill="#999999" d="M1319,165.1c-7-12.7-23.3-26-48.3-13.3c0-12.3-0.3-36.3-0.3-36.3h49V85.1h-78l-2,99.7h29   c0,0,4.7-7.7,14-7.7c9.3,0,10.3,11.3,10.3,18c0,6.7,0,40,0,45.7s-4.7,12.7-11.7,12.7s-12.7-5.7-12.7-14c0-8.3,0-19,0-19h-32.7   c0,0-2.3,31.7,8.7,48c11,16.3,33,15,40.3,15c7.3,0,35.3-6,39-32.3C1327.3,224.8,1326,177.8,1319,165.1z"/>
	<path fill="#999999" d="M180,220.8c-2.7-1.3-9.7,0-14.3,4.3c-4.7,4.3-10.7,9.7-16,7.7s-9-4-20-25.3c-11-21.3-17.7-30.3-21.3-35   c-3.7-4.7-11.7-20.3-3-25.3c8.7-5,21.3-7.3,22.7-13.3c1.3-6-1.3-13-5.7-21.7c-4.3-8.7-8.3-28.7-18.7-30.3c-6.3-1-22.3,9-31.3,16.3   c-9,7.3-20.7,22.3-10.3,58c10.3,35.7,39.7,83,62.7,105.7s44,32.3,65,21s26.7-18.7,16.7-31S182.7,222.1,180,220.8z"/>
</g>
</svg>