<svg xmlns="http://www.w3.org/2000/svg" xmlns:xlink="http://www.w3.org/1999/xlink" version="1.1" id="Capa_1" x="0px" y="0px" viewBox="-243 245 512 512" enable-background="new -243 245 512 512" xml:space="preserve">
<g>
	<path fill="#999" d="M13,277c123.5,0,224,100.5,224,224S136.5,725,13,725s-224-100.5-224-224S-110.5,277,13,277 M13,245   c-141.4,0-256,114.6-256,256s114.6,256,256,256s256-114.6,256-256S154.4,245,13,245L13,245z M155.7,586.6l-1.4-4.4   c-3.4-10.1-14.5-20.6-24.8-23.4l-37.8-10.3c-10.2-2.8-24.9,1-32.4,8.5l-13.7,13.7c-49.8-13.5-88.8-52.5-102.2-102.2l13.7-13.7   c7.5-7.5,11.2-22.1,8.5-32.4l-10.3-37.8c-2.8-10.2-13.3-21.4-23.4-24.8l-4.3-1.4c-10.1-3.4-24.5,0-32,7.6l-20.5,20.5   c-3.7,3.6-6,14-6,14.1c-0.7,65.1,24.8,127.7,70.8,173.8C-14.3,620.1,48.1,645.5,113,645c0.3,0,11.1-2.3,14.7-5.9l20.5-20.5   C155.7,611.1,159.1,596.7,155.7,586.6z"/>
</g>
</svg>