<svg xmlns="http://www.w3.org/2000/svg" width="512" height="512" viewBox="0 0 512 512" fill="none">
<g clip-path="url(#clip0_2488_31099)">
<path d="M322.136 154H357.084L280.35 240.993L370 359H299.647L244.566 287.288L181.507 359H146.558L227.851 265.956L142 154H214.1L263.863 219.509L322.136 154ZM309.904 338.576H329.278L203.919 173.668H183.102L309.904 338.576Z" fill="#999999"/>
<path d="M256 0C114.6 0 0 114.6 0 256C0 397.4 114.6 512 256 512C397.4 512 512 397.4 512 256C512 114.6 397.4 0 256 0ZM256 480C132.5 480 32 379.5 32 256C32 132.5 132.5 32 256 32C379.5 32 480 132.5 480 256C480 379.5 379.5 480 256 480Z" fill="#999999"/>
</g>
<defs>
<clipPath id="clip0_2488_31099">
<rect width="512" height="512" fill="white"/>
</clipPath>
</defs>
</svg>