<svg xmlns="http://www.w3.org/2000/svg" xmlns:xlink="http://www.w3.org/1999/xlink" version="1.1" id="Capa_1" x="0px" y="0px" viewBox="-657 245.2 512 512" enable-background="new -657 245.2 512 512" xml:space="preserve">
<g>
	<path fill="#999999" d="M-378.9,534.8c-2,0-4,1-6.1,3v40.8c2,2,4.1,3,6.1,3c3.5,0,5.3-3,5.3-9v-28.6   C-373.6,537.9-375.4,534.8-378.9,534.8z"/>
	<path fill="#999999" d="M-409.3,473.9c6.1,0,10.9-2.3,14.3-6.9c2.6-3.4,3.8-8.7,3.8-15.9v-23.7c0-7.2-1.2-12.5-3.8-15.9   c-3.4-4.6-8.2-6.9-14.3-6.9c-6.1,0-10.9,2.3-14.3,6.9c-2.6,3.4-3.8,8.7-3.8,15.9v23.7c0,7.2,1.2,12.5,3.8,15.9   C-420.2,471.6-415.4,473.9-409.3,473.9z M-415.2,424.9c0-6.3,1.9-9.4,5.9-9.4c4,0,5.8,3.1,5.8,9.4v28.5c0,6.3-1.9,9.4-5.8,9.4   c-4,0-5.9-3.1-5.9-9.4V424.9z"/>
	<path fill="#999999" d="M-333.9,534.8c-4.1,0-6.1,3.1-6.1,9.3v6.2h12.1v-6.2C-327.8,537.9-329.8,534.8-333.9,534.8z"/>
	<path fill="#999999" d="M-325.9,482.9c-24.9-2.8-50.1-2.8-75.2-2.8c-25.1,0-50.3,0-75.2,2.8c-10.5,1.2-19.2,9.1-21.7,19.7   c-3.5,15.2-3.5,31.8-3.5,47.5c0,15.7,0,32.3,3.5,47.5c2.5,10.7,11.2,18.6,21.7,19.7c24.9,2.8,50.1,2.8,75.2,2.8   c25.1,0,50.3,0,75.2-2.8c10.5-1.2,19.2-9.1,21.7-19.7c3.5-15.2,3.5-31.8,3.5-47.5c0-15.7,0-32.3-3.5-47.5   C-306.6,491.9-315.4,484.1-325.9,482.9z M-444.3,514.4h-14.5v77.2h-13.5v-77.2h-14.3v-12.7h42.3V514.4z M-407.6,591.7h-12.1v-7.3   c-4.8,5.5-9.4,8.2-13.9,8.2c-3.9,0-6.6-1.6-7.8-5c-0.7-2-1.1-5.2-1.1-10v-53h12.1V574c0,2.8,0,4.3,0.1,4.7c0.3,1.9,1.2,2.8,2.8,2.8   c2.4,0,5-1.9,7.7-5.7v-51.2h12.1V591.7z M-361.5,571.6c0,6.2-0.4,10.7-1.2,13.5c-1.6,5-4.9,7.5-9.7,7.5c-4.3,0-8.5-2.4-12.5-7.4   v6.5h-12.1v-89.9h12.1v29.4c3.9-4.8,8.1-7.3,12.5-7.3c4.8,0,8.1,2.5,9.7,7.6c0.8,2.7,1.2,7.1,1.2,13.5V571.6z M-315.7,560.4H-340   v11.9c0,6.2,2,9.3,6.2,9.3c3,0,4.7-1.6,5.4-4.9c0.1-0.7,0.3-3.4,0.3-8.2h12.4v1.8c0,3.9-0.1,6.6-0.3,7.8c-0.4,2.7-1.4,5.1-2.8,7.3   c-3.4,4.9-8.3,7.3-14.7,7.3c-6.3,0-11.2-2.3-14.7-6.9c-2.6-3.4-3.9-8.6-3.9-15.7v-23.5c0-7.2,1.2-12.4,3.7-15.8   c3.5-4.6,8.3-6.9,14.5-6.9c6.1,0,10.9,2.3,14.3,6.9c2.5,3.4,3.8,8.6,3.8,15.8V560.4z"/>
	<path fill="#999999" d="M-457.5,436.2V473h13.6v-36.8l16.4-54.1h-13.8l-9.3,35.7l-9.7-35.7h-14.3c2.9,8.4,5.9,16.9,8.7,25.3   C-461.5,420.1-458.7,429.7-457.5,436.2z"/>
	<path fill="#999999" d="M-372.1,473.9c4.5,0,9.1-2.7,14-8.3v7.4h12.3v-67.7h-12.3V457c-2.7,3.8-5.3,5.7-7.7,5.7   c-1.6,0-2.6-1-2.9-2.9c-0.1-0.4-0.1-1.9-0.1-4.8v-49.8h-12.2v53.5c0,4.8,0.4,8,1.1,10.1C-378.8,472.3-376.1,473.9-372.1,473.9z"/>
	<path fill="#999999" d="M-401,245.2c-141.4,0-256,114.6-256,256s114.6,256,256,256s256-114.6,256-256S-259.6,245.2-401,245.2z    M-401,725.2c-123.5,0-224-100.5-224-224s100.5-224,224-224s224,100.5,224,224S-277.5,725.2-401,725.2z"/>
</g>
</svg>