<svg xmlns="http://www.w3.org/2000/svg" xmlns:xlink="http://www.w3.org/1999/xlink" version="1.1" baseProfile="tiny" id="Layer_1" x="0px" y="0px" viewBox="0 0 500 500" xml:space="preserve">
<g>
	<path fill-rule="evenodd" fill="#0D6490" d="M386.9,313.3H240.8v72.4h146.1V313.3z M186.1,295.2h-73v126.6h73V295.2z M459.9,439.9   V458H40v-18.1c0-10,8.2-18.1,18.3-18.1V259.1h383.4v162.8C451.7,421.8,459.9,430,459.9,439.9z M67.4,241.1   c20.6,0,37.3-16.1,38.3-36.3c0,0,1.3-5.9,7.3-5.9s7.4,5.9,7.4,5.9c1,20.2,17.6,36.3,38.3,36.3c20.6,0,37.3-16.1,38.3-36.3   c0,0,1.3-5.9,7.3-5.9c6,0,7.4,5.9,7.4,5.9c1,20.2,17.6,36.3,38.3,36.3c20.6,0,37.3-16.1,38.3-36.3c0,0,1.3-5.9,7.3-5.9   c6,0,7.4,5.9,7.4,5.9c1,20.2,17.6,36.3,38.3,36.3c20.6,0,37.3-16.1,38.3-36.3c0,0,1.3-5.9,7.3-5.9c6,0,7.4,5.9,7.4,5.9   c1,20.2,17.6,36.3,38.3,36.3c21.2,0,38.4-17,38.4-38.1c0-5.9-2-16.3-2-16.3l-45.6-72.4H76.5l-45.6,72.4c0,0-1.9,10.4-1.9,16.3   C29,224.1,46.2,241.1,67.4,241.1z M441.6,96.3H58.3V60.1c0-10,8.2-18.1,18.3-18.1h346.9c10,0,18.3,8.1,18.3,18.1V96.3z"/>
</g>
</svg>