<svg xmlns="http://www.w3.org/2000/svg" width="27" height="28" viewBox="0 0 27 28">
    <defs>
        <linearGradient id="a" x1="35.414%" x2="72.564%" y1="33.713%" y2="69.07%">
            <stop offset="0%" stop-opacity=".1"/>
            <stop offset="100%" stop-opacity="0"/>
        </linearGradient>
    </defs>
    <g fill="none" fill-rule="nonzero">
        <path fill="#3198CA" d="M13.716.66C6.391.66.432 6.617.432 13.942c0 7.325 5.959 13.284 13.284 13.284C21.041 27.227 27 21.268 27 13.943 27 6.618 21.041.66 13.716.66z"/>
        <path fill="#FFF" d="M13.716.936c7.279 0 13.202 5.885 13.277 13.146 0-.047.007-.092.007-.139C27 6.618 21.041.66 13.716.66 6.391.66.432 6.62.432 13.943c0 .047.007.092.007.139C.514 6.82 6.439.936 13.716.936z" opacity=".2"/>
        <path fill="#000" d="M13.716 26.95C6.437 26.95.514 21.066.439 13.805c0 .046-.007.092-.007.138 0 7.325 5.959 13.284 13.284 13.284C21.041 27.227 27 21.268 27 13.943c0-.046-.007-.092-.007-.138-.075 7.26-6 13.145-13.277 13.145z" opacity=".1"/>
        <path fill="#FFF" d="M10.948 20.49L4.86 14.402l1.565-1.566 4.523 4.523L19.9 8.41l1.565 1.564z"/>
        <path fill="url(#a)" d="M21.033 9.314L10.517 19.831l6.256 6.257c5.174-1.413 9.1-5.87 9.709-11.325l-5.449-5.45v.001z" transform="translate(.432 .66)"/>
    </g>
</svg>