<svg xmlns="http://www.w3.org/2000/svg" xmlns:xlink="http://www.w3.org/1999/xlink" version="1.1" baseProfile="tiny" id="Layer_1" x="0px" y="0px" viewBox="0 0 483 116.2" xml:space="preserve">
<g>
	<path fill="#BE1E2D" d="M181.3,31l-6.1,0.4l1.8,31l5-0.3c10.3-0.6,15.1-6.1,14.5-16.6C195.9,35.3,190.9,30.5,181.3,31z"/>
	<path fill="#BE1E2D" d="M262.9,33c-0.5-1.7-0.8-2.9-1-3.7c-0.6,2.4-1.4,5-2.5,7.8l-4.1,11.1l12.5,0.2L264,36.7   C263.7,35.9,263.3,34.7,262.9,33z"/>
	<path fill="#BE1E2D" d="M483,28.4C324.3-9.5,158.7-9.5,0,28.4c11.2,12.8,22,25.8,32.5,38.9c-4.1,16.3-7.8,32.6-11.2,48.9   c144.7-34.5,295.7-34.5,440.4,0c-3.4-16.3-7.1-32.6-11.2-48.9C461,54.2,471.8,41.2,483,28.4z M73.1,64.4l-4.9-1.3l-3.8,3.3L64,61.4   l-4.3-2.6l4.7-1.8l1.2-4.9l3.2,3.9l5.1-0.4l-2.7,4.3L73.1,64.4z M104.5,58.4l-4.8-1.7l-4.1,3l0.1-5.1l-4.1-3l4.9-1.5l1.6-4.8   l2.9,4.2l5.1,0l-3.1,4L104.5,58.4z M133.9,54.8l-4.7-1.9l-4.3,2.8l0.4-5.1l-3.9-3.2l4.9-1.2l1.8-4.7l2.7,4.3l5.1,0.3l-3.3,3.9   L133.9,54.8z M412.3,59.7l-2.7-4.3l5.1,0.4l3.2-3.9l1.2,4.9l4.7,1.8l-4.3,2.6l-0.3,5.1l-3.8-3.3l-4.9,1.3L412.3,59.7z M380.5,53.6   l-3.1-4l5.1,0l2.9-4.2l1.6,4.8l4.9,1.5l-4.1,3l0.1,5.1l-4.1-3l-4.8,1.7L380.5,53.6z M350.8,49.9l-3.3-3.9l5.1-0.3l2.7-4.3l1.8,4.7   l4.9,1.2l-3.9,3.2l0.4,5.1l-4.3-2.8l-4.7,1.9L350.8,49.9z M199,61.4c-3.7,4-9.2,6.2-16.6,6.6l-12,0.7l-2.5-42.8l13.2-0.8   c6.8-0.4,12.2,1.1,16.2,4.6s6.2,8.5,6.6,15.1C204.3,52,202.7,57.5,199,61.4z M214,66.5l-0.8-42.8l24.2-0.5l0.1,5.9l-17.2,0.3   l0.2,11.7l16.1-0.3l0.1,5.9L220.6,47l0.3,13.4l17.2-0.3l0.1,5.9L214,66.5z M273.6,66.4l-4.1-12l-16.4-0.3L248.8,66l-7.4-0.1   l16.8-42.7l7.6,0.1l15.3,43.3L273.6,66.4z M311.4,68.3l-25.1-1.4l2.4-42.8l7,0.4l-2,36.8l18.1,1L311.4,68.3z"/>
</g>
</svg>