<svg xmlns="http://www.w3.org/2000/svg" xmlns:xlink="http://www.w3.org/1999/xlink" version="1.1" baseProfile="tiny" id="Layer_1" x="0px" y="0px" viewBox="0 0 500 500" xml:space="preserve">
<g>
	<path fill="#0D6490" d="M188.2,331.9c-10,0-18.1,8-18.1,17.9c0,9.9,8.1,17.9,18.1,17.9s18.1-8,18.1-17.9   C206.3,340,198.2,331.9,188.2,331.9z"/>
	<path fill="#0D6490" d="M148.8,185.3c-5.3,0-9.7,4.3-9.7,9.6c0,5.3,4.3,9.6,9.7,9.6c5.4,0,9.7-4.3,9.7-9.6   C158.5,189.6,154.2,185.3,148.8,185.3z"/>
	<path fill="#0D6490" d="M175.3,185.3c-5.3,0-9.7,4.3-9.7,9.6c0,5.3,4.3,9.6,9.7,9.6c5.3,0,9.7-4.3,9.7-9.6   C184.9,189.6,180.6,185.3,175.3,185.3z"/>
	<path fill="#0D6490" d="M485.1,327.2c-2.1-12.7-22.2-51.6-39.3-68.1c-17.1-16.5-51.3-27.5-61.5-29.2c-9.7-1.6-12.8-14-14.1-16.9   c-1.3-3-0.5-4.9,1.7-5.1c4.3-0.4,13.3,2.4,17.1-1.4c0-11.4-0.4-54.5-0.4-54.5s-13.1-2.5-21.8,2c-12,6.3-11.9,17-15.7,12.8   c-3.8-4.2-6.8-9.3-17.9-7.2c-11.1,2.1-20.9,5.5-23.5,6.8c-2.6,1.3-4.3,8,1.3,8.9c5.5,0.8,25.6,0.1,25.6,0.1s3.4,1.1,6.4,12.6   c2.2,8.2,17.9,55.4,5.5,127.8c-1.3,5.1-4.3,6.3-7.7,6.8c-3.4,0.4-78.1,0-78.1,0s-15.8,1.3-15.8-28.4c0-25.7,21.5-36.4,33-39.4h7.9   c2.8,0,5.1-2.3,5.1-5.1v-15.2c0-2.8-2.3-5.1-5.1-5.1h-13.8c0.1-0.3,0.1-0.4,0.1-0.4V128.3v-1.7h10.1c2.8,0,5.1-2.3,5.1-5.1v-18.2   c0-2.8-2.3-5.1-5.1-5.1h-10.1h-181H81.7c-2.8,0-5.1,2.3-5.1,5.1v18.2c0,2.8,2.3,5.1,5.1,5.1h11.5v101.6v1.3H77   c-2.8,0-5.1,2.3-5.1,5.1v15.2c0,2.8,2.3,5.1,5.1,5.1h75c1.3,0.9,2,2.7-2,5.9c-1.5,1.2-4.2,3.5-7.3,6.8H42.9c-4.5,0-8.1,3.6-8.1,8   c0,4.4,3.6,8,8.1,8H130c-2,3.1-3.9,6.5-5.8,10.2H65.9c-4.5,0-8.1,3.6-8.1,8c0,4.4,3.6,8,8.1,8H118c-0.9,3.1-1.7,6.3-2.3,9.7H22.4   c-4.5,0-8.1,3.6-8.1,8c0,4.4,3.6,8,8.1,8h91.9c1,9.9,5.7,14,13.5,14c0,0,2.9,0,8.1,0c0,0.1,0,0.1,0,0.2c0,28.6,23.4,51.8,52.3,51.8   c28.9,0,52.3-23.2,52.3-51.8c0-0.1,0-0.1,0-0.2c37.6,0,79.3,0,116.9,0c0,0.1,0,0.1,0,0.2c0,28.6,23.4,51.8,52.3,51.8   c28.9,0,52.3-23.2,52.3-51.8c0-0.1,0-0.1,0-0.2c3.5,0,5.9,0,7,0C484.7,349.7,487.2,339.9,485.1,327.2z M188.2,383.9   c-18.9,0-34.3-15.2-34.3-34c0-18.8,15.4-34,34.3-34s34.3,15.2,34.3,34C222.5,368.6,207.1,383.9,188.2,383.9z M234.7,160.3   l-33.7,33.4l-35.5,35.2c-1.8,1.8-4.7,1.8-6.5,0l-31.6-31.3c-1.8-1.8-1.8-4.6,0-6.4l35.3-34.9l33.9-33.7c0.9-0.9,2.1-1.3,3.2-1.3   c1.2,0,2.3,0.4,3.2,1.3l31.6,31.3C236.5,155.7,236.5,158.5,234.7,160.3z M409.6,383.9c-18.9,0-34.3-15.2-34.3-34   c0-18.8,15.4-34,34.3-34c18.9,0,34.3,15.2,34.3,34C443.9,368.6,428.6,383.9,409.6,383.9z"/>
	<path fill="#0D6490" d="M201.7,124c-0.5-0.5-1.1-0.7-1.8-0.7c-0.7,0-1.3,0.3-1.8,0.7l-32.5,32.2l35.3,34.6l32.3-32c1-1,1-2.6,0-3.5   L201.7,124z M199.3,165.7c-5.3,0-9.7-4.3-9.7-9.6c0-5.3,4.3-9.6,9.7-9.6c5.3,0,9.7,4.3,9.7,9.6C209,161.4,204.6,165.7,199.3,165.7z   "/>
	<path fill="#0D6490" d="M409.6,331.9c-10,0-18.1,8-18.1,17.9c0,9.9,8.1,17.9,18.1,17.9c10,0,18.1-8,18.1-17.9   C427.7,340,419.6,331.9,409.6,331.9z"/>
</g>
</svg>