<svg xmlns="http://www.w3.org/2000/svg" xmlns:xlink="http://www.w3.org/1999/xlink" version="1.1" baseProfile="tiny" id="Layer_1" x="0px" y="0px" viewBox="0 0 500 500" xml:space="preserve">
<g>
	<path fill="#0D6490" d="M428.8,125c7.7-6.8,8.5-18.6,1.7-26.3c-3.3-3.8-6.8-7.5-10.4-11.1c0,0,0,0,0,0c0,0,0,0,0,0c0,0,0,0,0,0v0   c-43.5-43.4-101.2-67.3-162.7-67.3C202.2,20.3,150,39.7,108.5,75L76.9,43.5c-4.7-4.7-11.6-6.5-18-4.8c-6.4,1.7-11.5,6.7-13.2,13.2   L13.3,172.5c-1.7,6.4,0.1,13.3,4.8,18c3.5,3.5,8.3,5.5,13.2,5.5c1.6,0,3.2-0.2,4.8-0.6L157,163c6.4-1.7,11.5-6.7,13.2-13.2   c1.7-6.4-0.1-13.3-4.8-18L135,101.5c34.4-28.4,77.3-43.9,122.5-43.9c51.5,0,99.9,20,136.3,56.4c0,0,0,0,0,0c0,0,0,0,0,0   c3,3,5.9,6.1,8.7,9.3c3.7,4.2,8.8,6.3,14,6.3C420.9,129.6,425.3,128.1,428.8,125z"/>
	<path fill="#0D6490" d="M206.2,435.7c-8.3-2.3-16.6-5.2-24.5-8.5c-9.5-4-20.4,0.4-24.5,9.8c-4,9.5,0.4,20.4,9.9,24.4   c9.5,4,19.3,7.5,29.2,10.2c1.7,0.5,3.3,0.7,5,0.7c8.2,0,15.7-5.4,18-13.7C221.9,448.7,216.1,438.4,206.2,435.7z"/>
	<path fill="#0D6490" d="M291.9,439.5c-8.5,1.5-17.2,2.5-25.8,2.9c-10.3,0.5-18.3,9.2-17.8,19.4c0.4,10,8.7,17.8,18.6,17.8   c0.3,0,0.6,0,0.8,0c10.3-0.5,20.6-1.6,30.8-3.5c10.1-1.8,16.9-11.5,15-21.6C311.8,444.4,302,437.7,291.9,439.5z"/>
	<path fill="#0D6490" d="M434.7,174.3c3.4,7.9,6.3,16.1,8.6,24.5c2.3,8.3,9.8,13.7,18,13.7c1.6,0,3.3-0.2,5-0.7   c9.9-2.7,15.8-13,13-22.9c-2.7-9.9-6.2-19.7-10.2-29.2c-4.1-9.5-15-13.8-24.5-9.8C435,153.9,430.7,164.8,434.7,174.3z"/>
	<path fill="#0D6490" d="M370.8,405.8c-7,5.1-14.4,9.7-21.9,13.8c-9.1,4.9-12.5,16.2-7.6,25.2c3.4,6.2,9.8,9.8,16.5,9.8   c3,0,6-0.7,8.8-2.2c9-4.9,17.9-10.4,26.2-16.5c8.3-6.1,10.1-17.7,4.1-26C390.8,401.6,379.2,399.8,370.8,405.8z"/>
	<path fill="#0D6490" d="M452.6,333.7c-9.1-4.9-20.4-1.5-25.3,7.6c-4.1,7.6-8.7,14.9-13.8,21.9c-6.1,8.3-4.2,20,4.1,26   c3.3,2.4,7.2,3.6,11,3.6c5.8,0,11.4-2.7,15.1-7.7c6.1-8.3,11.6-17.1,16.5-26.2C465.1,349.8,461.7,338.5,452.6,333.7z"/>
	<path fill="#0D6490" d="M469.5,240.8c-0.3,0-0.5,0-0.8,0c-9.9,0-18.2,7.8-18.6,17.8c-0.4,8.6-1.3,17.3-2.9,25.8   c-1.8,10.1,4.9,19.8,15.1,21.6c1.1,0.2,2.2,0.3,3.3,0.3c8.9,0,16.7-6.3,18.3-15.3c1.8-10.1,3-20.4,3.4-30.7   C487.8,250,479.8,241.3,469.5,240.8z"/>
	<path fill="#0D6490" d="M121.1,386.2c-7.3-7.3-19.1-7.3-26.4,0c-7.3,7.3-7.3,19.1,0,26.3c3.6,3.6,7.3,7.1,11.1,10.4   c3.5,3.1,7.9,4.6,12.3,4.6c5.2,0,10.3-2.1,14-6.3c6.8-7.7,6-19.5-1.7-26.3C127.3,392.2,124.2,389.3,121.1,386.2z"/>
</g>
</svg>