<svg version="1.1" baseProfile="tiny" class="tracker-circle no-order" data-step="0" id="Layer_1" xmlns="http://www.w3.org/2000/svg" x="0px" y="0px" viewBox="0 0 1080 1080" xml:space="preserve">
                                        <path id="piece1" fill="#006FA6" d="M662,135.3l37.8-47L695.7,35c-48.3-14.9-99.4-23-152.3-23.4v105.9C584.7,117.8,624.4,123.9,662,135.3z"></path>
                                        <path id="piece2" fill="#006FA6" d="M676.9,140c162.8,56,281.2,208.6,285.7,389.2l47.5,19.7l58.5-21.9C1063.1,301,915,109.6,710.9,39.7l4.1,53.1L676.9,140z"></path>
                                        <path id="piece3" fill="#006FA6" d="M1068.6,542.5l-58.8,22.1L962.6,545C959.8,775.2,771.9,961.9,541,962.4l-20.8,53l21,52.8C831.3,1067.7,1067.2,832.5,1068.6,542.5z"></path>
                                        <path id="piece4" fill="#006FA6" d="M525.5,962.2c-108.8-3.8-207.2-48.7-280.1-119.7l-56.1,21.9L166.1,913c92.5,92.8,219.3,151.4,359.4,155.3l-20.8-52.7L525.5,962.2z"></path>
                                        <path id="piece5" fill="#006FA6" d="M234.1,831.2c-72.3-75.9-116.8-178.5-116.8-291.4c0-229.3,183.5-416.6,411.4-422.4V11.7C242.6,17.6,11.4,252.4,11.4,540c0,139.8,54.7,267.2,143.7,361.7l23.4-48.9L234.1,831.2z"></path>
                                    </svg>