<svg xmlns="http://www.w3.org/2000/svg" xmlns:xlink="http://www.w3.org/1999/xlink" width="64px" height="64px" viewBox="0 0 64 64" version="1.1">
    <g id="griparJumbogr" stroke="none" stroke-width="1" fill="none" fill-rule="evenodd">
        <g id="Group-21" transform="translate(4.000000, 3.000000)" stroke="#0778AF" stroke-width="2">
            <path d="M53.9695,30.7598 C53.9695,45.6698 41.8905,57.7498 26.9905,57.7498 C22.0705,57.7498 17.4595,56.4408 13.4905,54.1298 L26.9905,30.7598 L50.3505,17.2808 C52.6595,21.2498 53.9695,25.8498 53.9695,30.7598 Z" id="Stroke-1"/>
            <path d="M3.6102,44.2501 C5.9802,48.3501 9.3902,51.7701 13.4902,54.1301" id="Stroke-3"/>
            <line x1="26.9852" y1="3.7755" x2="26.9852" y2="57.7475" id="Stroke-5"/>
            <line x1="13.492" y1="7.3907" x2="40.478" y2="54.1317" id="Stroke-7"/>
            <line x1="3.6141" y1="17.2686" x2="50.3551" y2="44.2546" id="Stroke-9"/>
            <line x1="-0.0012" y1="30.7618" x2="53.9718" y2="30.7618" id="Stroke-11"/>
            <line x1="50.3602" y1="17.2696" x2="50.3502" y2="17.2806" id="Stroke-13"/>
            <path d="M40.4695,7.4005 L26.9905,30.7595 L3.6105,44.2505 C1.3105,40.2805 -0.0005,35.6795 -0.0005,30.7595 C-0.0005,15.8605 12.0795,3.7805 26.9905,3.7805 C31.9005,3.7805 36.4995,5.0895 40.4695,7.4005 Z" id="Stroke-15"/>
            <line x1="40.4803" y1="7.3897" x2="40.4693" y2="7.4007" id="Stroke-17"/>
            <path d="M56.9022,8.6885 L37.2022,20.0565 L48.5702,0.3655 C52.0272,2.3555 54.9122,5.2305 56.9022,8.6885 Z" id="Stroke-19"/>
        </g>
    </g>
</svg>