<svg xmlns="http://www.w3.org/2000/svg" xmlns:xlink="http://www.w3.org/1999/xlink" version="1.1" baseProfile="tiny" id="Layer_1" x="0px" y="0px" viewBox="0 0 500 500" xml:space="preserve">
<g>
	<path fill="#0D6490" d="M250,13C157.3,13,81.8,86.9,81.8,177.7c0,36.6,23.8,96.2,72.9,182.3c34.7,60.9,68.8,111.7,70.3,113.8l0,0   c11.8,17.6,38.2,17.6,50,0l0,0c1.4-2.1,35.6-52.9,70.3-113.8c49.1-86.1,72.9-145.7,72.9-182.3C418.2,86.9,342.7,13,250,13z    M250,262c-48.1,0-87.2-38.2-87.2-85.4c0-47.1,39-85.4,87.2-85.4c48.1,0,87.2,38.2,87.2,85.4C337.2,223.7,298.1,262,250,262z"/>
</g>
</svg>