<svg xmlns="http://www.w3.org/2000/svg" xmlns:xlink="http://www.w3.org/1999/xlink" version="1.1" baseProfile="tiny" id="Layer_1" x="0px" y="0px" viewBox="0 0 500 500" xml:space="preserve">
<g>
	<path fill="#636464" d="M366.1,421.4v-47.4c0-64.1-53.7-104.7-88.1-124.1c34.4-19.4,88.1-60,88.1-124.1V78.6   c10.4-6.4,17.2-17.4,17.2-29.8C383.3,29,366,13,344.5,13H155.5c-21.4,0-38.8,16-38.8,35.8c0,12.4,6.8,23.4,17.2,29.8v47.3   c0,64.1,53.7,104.7,88.1,124.1c-34.4,19.4-88.1,60-88.1,124.1v47.4c-10.4,6.4-17.2,17.4-17.2,29.8c0,19.8,17.4,35.8,38.8,35.8   h189.1c21.4,0,38.8-16,38.8-35.8C383.3,438.8,376.5,427.9,366.1,421.4z M177.2,125.9V87.7c0-6.3,4.8-11.4,10.8-11.4h124   c6,0,10.8,5.1,10.8,11.4v38.2c0,42.6-45.7,72.9-65.3,84l-2.4,1.4c-1.6,0.9-3.4,1.4-5.1,1.4c-1.8,0-3.5-0.5-5.1-1.4l-2.4-1.4   C222.9,198.9,177.2,168.5,177.2,125.9z M322.8,412.3c0,6.3-4.8,11.4-10.8,11.4H188c-6,0-10.8-5.1-10.8-11.4v-38.2   c0-42.6,45.7-72.9,65.3-84l2.4-1.4c3.2-1.8,7-1.8,10.2,0l2.4,1.4c19.6,11.1,65.3,41.5,65.3,84L322.8,412.3L322.8,412.3z"/>
	<path fill="#636464" d="M250,325.8c-31.3,20.5-50.1,43.2-50.1,61.1v14h100.2v-14C300.1,369,281.3,346.3,250,325.8z"/>
	<path fill="#636464" d="M250,194.8c21.8-14.3,35-30.1,35-42.7v-9.8H215v9.8C215,164.6,228.2,180.5,250,194.8z"/>
</g>
</svg>