<svg xmlns="http://www.w3.org/2000/svg" xmlns:xlink="http://www.w3.org/1999/xlink" version="1.1" baseProfile="tiny" id="Layer_1" x="0px" y="0px" viewBox="0 0 500 500" xml:space="preserve">
<g>
	<path fill="#FFFFFF" d="M72.1,166.3h-1.3c-16,0-29,12.9-29,28.7v124.8c0,15.8,13,28.7,29,28.7h1.3c16,0,29-12.9,29-28.7V195   C101.2,179.3,88.1,166.3,72.1,166.3z M115.1,368c0,14.5,12,26.3,26.7,26.3h28.5v67.4c0,15.8,13.1,28.7,29,28.7h1.2   c16,0,29.1-12.9,29.1-28.7v-67.4h39.8v67.4c0,15.8,13.1,28.7,29.1,28.7h1.2c16,0,29.1-12.9,29.1-28.7v-67.4h28.5   c14.7,0,26.7-11.8,26.7-26.3V170.9H115.1V368z M316.5,51.4l22.6-34.5c1.5-2.2,0.8-5.2-1.4-6.6c-2.2-1.4-5.2-0.8-6.7,1.4l-23.5,35.7   c-17.6-7.1-37.3-11.1-58-11.1c-20.8,0-40.4,4-58.1,11.1L168,11.7c-1.4-2.2-4.5-2.8-6.7-1.4c-2.2,1.4-2.9,4.4-1.4,6.6l22.7,34.5   c-40.8,19.8-68.4,57-68.4,99.8c0,2.6,0.2,5.2,0.4,7.8h269.9c0.2-2.6,0.4-5.2,0.4-7.8C384.9,108.5,357.3,71.2,316.5,51.4z    M186.9,113.2c-7.2,0-13-5.7-13-12.8c0-7.1,5.8-12.8,13-12.8c7.2,0,13,5.7,13,12.8C199.9,107.5,194.1,113.2,186.9,113.2z    M312.1,113.2c-7.2,0-13-5.7-13-12.8c0-7.1,5.8-12.8,13-12.8c7.2,0,13,5.7,13,12.8C325,107.5,319.3,113.2,312.1,113.2z    M428.1,166.3h-1.2c-16,0-29.1,12.9-29.1,28.7v124.8c0,15.8,13.1,28.7,29.1,28.7h1.2c16,0,29-12.9,29-28.7V195   C457.1,179.3,444.1,166.3,428.1,166.3z"/>
</g>
</svg>