<svg xmlns="http://www.w3.org/2000/svg" xmlns:xlink="http://www.w3.org/1999/xlink" version="1.1" baseProfile="tiny" id="Layer_1" x="0px" y="0px" viewBox="0 0 500 500" xml:space="preserve">
<g>
	<path fill="#FFFFFF" d="M380.7,265.1c-0.6-59.1,48.9-87.4,51.1-88.9c-27.8-40.1-71.1-45.6-86.6-46.2c-36.9-3.7-71.9,21.4-90.7,21.4   c-18.7,0-47.5-20.9-78.1-20.3c-40.2,0.6-77.2,23-97.9,58.5c-41.8,71.4-10.7,177.2,30,235.1c19.9,28.4,43.6,60.2,74.7,59.1   c30-1.2,41.3-19.1,77.6-19.1c36.2,0,46.4,19.1,78.2,18.5c32.3-0.6,52.7-28.9,72.5-57.3c22.8-32.9,32.2-64.7,32.8-66.4   C443.6,359.2,381.4,335.7,380.7,265.1z M321.1,91.7c16.5-19.8,27.7-47.2,24.6-74.5c-23.8,1-52.7,15.6-69.7,35.3   c-15.3,17.5-28.7,45.4-25.1,72.2C277.5,126.7,304.6,111.4,321.1,91.7z"/>
</g>
</svg>