<svg xmlns="http://www.w3.org/2000/svg" xmlns:xlink="http://www.w3.org/1999/xlink" version="1.1" baseProfile="tiny" id="Layer_1" x="0px" y="0px" viewBox="0 0 500 500" xml:space="preserve">
<g>
	<path fill="#0D6490" d="M250,5C114.7,5,5,114.7,5,250c0,135.3,109.7,245,245,245c135.3,0,245-109.7,245-245   C495,114.7,385.3,5,250,5z M250,78.3c44.8,0,81,36.3,81,81c0,44.8-36.3,81-81,81c-44.7,0-81-36.3-81-81   C169,114.5,205.3,78.3,250,78.3z M249.9,430.9c-44.6,0-85.5-16.3-117.1-43.2c-7.7-6.6-12.1-16.2-12.1-26.3   c0-45.4,36.7-81.7,82.1-81.7h94.3c45.4,0,82,36.3,82,81.7c0,10.1-4.4,19.7-12.1,26.2C335.5,414.7,294.6,430.9,249.9,430.9z"/>
</g>
</svg>